{
  "accessors": [
    {
      "bufferView": 0,
      "componentType": 5126,
      "count": 2220,
      "max": [
        0.5667235851287842,
        1.2934112548828125,
        0.10016659647226334
      ],
      "min": [
        -0.7508302330970764,
        -1.4440261125564575,
        -0.09771169722080231
      ],
      "name": "Line001/POSITION",
      "type": "VEC3"
    },
    {
      "bufferView": 0,
      "byteOffset": 12,
      "componentType": 5126,
      "count": 2220,
      "name": "Line001/NORMAL",
      "type": "VEC3"
    },
    {
      "bufferView": 0,
      "byteOffset": 24,
      "componentType": 5126,
      "count": 2220,
      "name": "Line001/TEXCOORD_0",
      "type": "VEC2"
    },
    {
      "bufferView": 1,
      "componentType": 5125,
      "count": 2220,
      "name": "Line001/INDICES",
      "type": "SCALAR"
    },
    {
      "bufferView": 2,
      "componentType": 5126,
      "count": 21,
      "max": [
        4.195581436157227,
        3.6854286193847656,
        0.0
      ],
      "min": [
        -5.222613334655762,
        -3.9903998374938965,
        0.0
      ],
      "name": "Line002/POSITION",
      "type": "VEC3"
    },
    {
      "bufferView": 2,
      "byteOffset": 12,
      "componentType": 5126,
      "count": 21,
      "name": "Line002/NORMAL",
      "type": "VEC3"
    },
    {
      "bufferView": 2,
      "byteOffset": 24,
      "componentType": 5126,
      "count": 21,
      "name": "Line002/TEXCOORD_0",
      "type": "VEC2"
    },
    {
      "bufferView": 3,
      "componentType": 5125,
      "count": 57,
      "name": "Line002/INDICES",
      "type": "SCALAR"
    },
    {
      "bufferView": 4,
      "componentType": 5126,
      "count": 27,
      "max": [
        10.964783668518066,
        2.9747579097747803,
        0.0
      ],
      "min": [
        -11.484831809997559,
        -3.2078163623809814,
        0.0
      ],
      "name": "Line003/POSITION",
      "type": "VEC3"
    },
    {
      "bufferView": 4,
      "byteOffset": 12,
      "componentType": 5126,
      "count": 27,
      "name": "Line003/NORMAL",
      "type": "VEC3"
    },
    {
      "bufferView": 4,
      "byteOffset": 24,
      "componentType": 5126,
      "count": 27,
      "name": "Line003/TEXCOORD_0",
      "type": "VEC2"
    },
    {
      "bufferView": 5,
      "componentType": 5125,
      "count": 75,
      "name": "Line003/INDICES",
      "type": "SCALAR"
    }
  ],
  "asset": {
    "copyright": "Copyright (c) 2018-2020 Chukong Technologies Inc.",
    "generator": "FBX-glTF-conv",
    "version": "2.0"
  },
  "bufferViews": [
    {
      "buffer": 0,
      "byteLength": 71040,
      "byteStride": 32,
      "name": "Line001",
      "target": 34962
    },
    {
      "buffer": 0,
      "byteLength": 8880,
      "byteOffset": 71040
    },
    {
      "buffer": 0,
      "byteLength": 672,
      "byteOffset": 79920,
      "byteStride": 32,
      "name": "Line002",
      "target": 34962
    },
    {
      "buffer": 0,
      "byteLength": 228,
      "byteOffset": 80592
    },
    {
      "buffer": 0,
      "byteLength": 864,
      "byteOffset": 80820,
      "byteStride": 32,
      "name": "Line003",
      "target": 34962
    },
    {
      "buffer": 0,
      "byteLength": 300,
      "byteOffset": 81684
    }
  ],
  "buffers": [
    {
      "byteLength": 81984,
      "uri": "out.bin"
    }
  ],
  "images": [
    {
      "extras": {
        "FBX-glTF-conv": {
          "fileName": "",
          "relativeFileName": ""
        }
      },
      "name": "Map #83",
      "uri": "data:image/png;base64,"
    }
  ],
  "materials": [
    {
      "extras": {
        "FBX-glTF-conv": {
          "originalMaterial": {
            "properties": {
              "3dsMax": {
                "BRDF": {
                  "anisotropy": 0.0,
                  "anisotropy_axis": 2,
                  "anisotropy_channel": 1,
                  "anisotropy_derivation": 0,
                  "anisotropy_rotation": 0.0,
                  "brdf_fixDarkEdges": false,
                  "brdf_type": 1,
                  "soften": 0.0
                },
                "ClassIDa": 935280431,
                "ClassIDb": 1882483036,
                "SuperClassID": 3072,
                "basic": {
                  "diffuse": [
                    0.7686275243759155,
                    0.8784314393997192,
                    1.0
                  ],
                  "diffuse_roughness": 0.0,
                  "hilight_glossiness": 0.5,
                  "reflection": [
                    0.8235294818878174,
                    0.8235294818878174,
                    0.8235294818878174
                  ],
                  "reflection_affectAlpha": 0,
                  "reflection_dimDistance": 100.0,
                  "reflection_dimDistance_falloff": 0.0,
                  "reflection_dimDistance_on": false,
                  "reflection_exitColor": [
                    0.0,
                    0.0,
                    0.0
                  ],
                  "reflection_fresnel": true,
                  "reflection_glossiness": 0.6000000238418579,
                  "reflection_ior": 3.0,
                  "reflection_lockGlossiness": true,
                  "reflection_lockIOR": false,
                  "reflection_maxDepth": 5,
                  "reflection_subdivs": 8,
                  "reflection_useInterpolation": false,
                  "refraction": [
                    0.9137255549430847,
                    0.9137255549430847,
                    0.9137255549430847
                  ],
                  "refraction_affectAlpha": 0,
                  "refraction_affectShadows": false,
                  "refraction_dispersion": 50.0,
                  "refraction_dispersion_on": false,
                  "refraction_exitColor": [
                    0.0,
                    0.0,
                    0.0
                  ],
                  "refraction_fogBias": 0.0,
                  "refraction_fogColor": [
                    1.0,
                    1.0,
                    1.0
                  ],
                  "refraction_fogMult": 1.0,
                  "refraction_glossiness": 0.800000011920929,
                  "refraction_ior": 1.600000023841858,
                  "refraction_maxDepth": 5,
                  "refraction_subdivs": 8,
                  "refraction_useExitColor": false,
                  "refraction_useInterpolation": false,
                  "selfIllumination": [
                    0.0,
                    0.0,
                    0.0
                  ],
                  "selfIllumination_gi": true,
                  "selfIllumination_multiplier": 1.0,
                  "translucency_color": [
                    1.0,
                    1.0,
                    1.0
                  ],
                  "translucency_fbCoeff": 1.0,
                  "translucency_multiplier": 1.0,
                  "translucency_on": 0,
                  "translucency_scatterCoeff": 0.0,
                  "translucency_thickness": 1000.0
                },
                "maps": {
                  "texmap_anisotropy_multiplier": 100.0,
                  "texmap_anisotropy_on": true,
                  "texmap_anisotropy_rotation_multiplier": 100.0,
                  "texmap_anisotropy_rotation_on": true,
                  "texmap_bump_multiplier": 30.0,
                  "texmap_bump_on": true,
                  "texmap_diffuse_multiplier": 100.0,
                  "texmap_diffuse_on": true,
                  "texmap_displacement_multiplier": 100.0,
                  "texmap_displacement_on": true,
                  "texmap_environment_on": true,
                  "texmap_hilightGlossiness_multiplier": 100.0,
                  "texmap_hilightGlossiness_on": true,
                  "texmap_opacity_multiplier": 100.0,
                  "texmap_opacity_on": true,
                  "texmap_reflectionGlossiness_multiplier": 100.0,
                  "texmap_reflectionGlossiness_on": true,
                  "texmap_reflectionIOR_multiplier": 100.0,
                  "texmap_reflectionIOR_on": true,
                  "texmap_reflection_multiplier": 100.0,
                  "texmap_reflection_on": true,
                  "texmap_refractionGlossiness_multiplier": 100.0,
                  "texmap_refractionGlossiness_on": true,
                  "texmap_refractionIOR_multiplier": 100.0,
                  "texmap_refractionIOR_on": true,
                  "texmap_refraction_fog_multiplier": 100.0,
                  "texmap_refraction_fog_on": true,
                  "texmap_refraction_multiplier": 100.0,
                  "texmap_refraction_on": true,
                  "texmap_roughness_multiplier": 100.0,
                  "texmap_roughness_on": true,
                  "texmap_self_illumination_multiplier": 100.0,
                  "texmap_self_illumination_on": true,
                  "texmap_translucent_multiplier": 100.0,
                  "texmap_translucent_on": true
                },
                "options": {
                  "effect_id": 0,
                  "option_clampTextures": true,
                  "option_cutOff": 0.009999999776482582,
                  "option_doubleSided": true,
                  "option_environment_priority": 0,
                  "option_reflectOnBack": false,
                  "option_traceDiffuse": false,
                  "option_traceDiffuseAndGlossy": 1,
                  "option_traceReflection": true,
                  "option_traceRefraction": true,
                  "option_useIrradMap": true,
                  "override_effect_id": false,
                  "preservationMode": 0,
                  "refraction_fogUnitsScale_on": true
                },
                "reflect_interpolation": {
                  "reflect_colorThreshold": 0.25,
                  "reflect_interpSamples": 20,
                  "reflect_maxRate": -1,
                  "reflect_minRate": -1,
                  "reflect_normalThreshold": 0.4000000059604645
                },
                "refract_interpolation": {
                  "refract_colorThreshold": 0.25,
                  "refract_interpSamples": 20,
                  "refract_maxRate": -1,
                  "refract_minRate": -1,
                  "refract_normalThreshold": 0.4000000059604645
                }
              },
              "AmbientColor": [
                0.0,
                0.0,
                0.0
              ],
              "DiffuseColor": [
                0.7686275243759155,
                0.8784314393997192,
                1.0
              ],
              "EmissiveColor": [
                0.0,
                0.0,
                0.0
              ],
              "EmissiveFactor": 0.0,
              "MultiLayer": false,
              "ShadingModel": "unknown",
              "ShininessExponent": 64.0,
              "SpecularColor": [
                0.8235294818878174,
                0.8235294818878174,
                0.8235294818878174
              ],
              "SpecularFactor": 1.0,
              "TransparencyFactor": 0.9137255549430847,
              "启用": false
            }
          }
        }
      },
      "name": "03 - Default",
      "pbrMetallicRoughness": {
        "baseColorFactor": [
          0.84659743309021,
          0.8500776290893555,
          0.8539307117462158,
          0.08627444505691528
        ],
        "metallicFactor": 0.9985018968582153,
        "roughnessFactor": 0.19120444357395172
      }
    },
    {
      "extras": {
        "FBX-glTF-conv": {
          "originalMaterial": {
            "properties": {
              "3dsMax": {
                "BRDF": {
                  "anisotropy": 0.0,
                  "anisotropy_axis": 2,
                  "anisotropy_channel": 1,
                  "anisotropy_derivation": 0,
                  "anisotropy_rotation": 0.0,
                  "brdf_fixDarkEdges": false,
                  "brdf_type": 1,
                  "soften": 0.0
                },
                "ClassIDa": 935280431,
                "ClassIDb": 1882483036,
                "SuperClassID": 3072,
                "basic": {
                  "diffuse": [
                    0.19607844948768616,
                    0.19607844948768616,
                    0.19607844948768616
                  ],
                  "diffuse_roughness": 0.0,
                  "hilight_glossiness": 1.0,
                  "reflection": [
                    0.8823530077934265,
                    0.8823530077934265,
                    0.8823530077934265
                  ],
                  "reflection_affectAlpha": 0,
                  "reflection_dimDistance": 100.0,
                  "reflection_dimDistance_falloff": 0.0,
                  "reflection_dimDistance_on": false,
                  "reflection_exitColor": [
                    0.0,
                    0.0,
                    0.0
                  ],
                  "reflection_fresnel": true,
                  "reflection_glossiness": 1.0,
                  "reflection_ior": 1.600000023841858,
                  "reflection_lockGlossiness": true,
                  "reflection_lockIOR": true,
                  "reflection_maxDepth": 5,
                  "reflection_subdivs": 8,
                  "reflection_useInterpolation": false,
                  "refraction": [
                    0.6431372761726379,
                    0.6431372761726379,
                    0.6431372761726379
                  ],
                  "refraction_affectAlpha": 0,
                  "refraction_affectShadows": false,
                  "refraction_dispersion": 50.0,
                  "refraction_dispersion_on": false,
                  "refraction_exitColor": [
                    0.0,
                    0.0,
                    0.0
                  ],
                  "refraction_fogBias": 0.0,
                  "refraction_fogColor": [
                    1.0,
                    1.0,
                    1.0
                  ],
                  "refraction_fogMult": 1.0,
                  "refraction_glossiness": 1.0,
                  "refraction_ior": 1.600000023841858,
                  "refraction_maxDepth": 5,
                  "refraction_subdivs": 8,
                  "refraction_useExitColor": false,
                  "refraction_useInterpolation": false,
                  "selfIllumination": [
                    0.0,
                    0.0,
                    0.0
                  ],
                  "selfIllumination_gi": true,
                  "selfIllumination_multiplier": 1.0,
                  "translucency_color": [
                    1.0,
                    1.0,
                    1.0
                  ],
                  "translucency_fbCoeff": 1.0,
                  "translucency_multiplier": 1.0,
                  "translucency_on": 0,
                  "translucency_scatterCoeff": 0.0,
                  "translucency_thickness": 1000.0
                },
                "maps": {
                  "texmap_anisotropy_multiplier": 100.0,
                  "texmap_anisotropy_on": true,
                  "texmap_anisotropy_rotation_multiplier": 100.0,
                  "texmap_anisotropy_rotation_on": true,
                  "texmap_bump": {
                    "index": 0
                  },
                  "texmap_bump_multiplier": 15.0,
                  "texmap_bump_on": true,
                  "texmap_diffuse_multiplier": 100.0,
                  "texmap_diffuse_on": true,
                  "texmap_displacement_multiplier": 100.0,
                  "texmap_displacement_on": true,
                  "texmap_environment_on": true,
                  "texmap_hilightGlossiness_multiplier": 100.0,
                  "texmap_hilightGlossiness_on": true,
                  "texmap_opacity_multiplier": 100.0,
                  "texmap_opacity_on": true,
                  "texmap_reflectionGlossiness_multiplier": 100.0,
                  "texmap_reflectionGlossiness_on": true,
                  "texmap_reflectionIOR_multiplier": 100.0,
                  "texmap_reflectionIOR_on": true,
                  "texmap_reflection_multiplier": 100.0,
                  "texmap_reflection_on": true,
                  "texmap_refractionGlossiness_multiplier": 100.0,
                  "texmap_refractionGlossiness_on": true,
                  "texmap_refractionIOR_multiplier": 100.0,
                  "texmap_refractionIOR_on": true,
                  "texmap_refraction_fog_multiplier": 100.0,
                  "texmap_refraction_fog_on": true,
                  "texmap_refraction_multiplier": 100.0,
                  "texmap_refraction_on": true,
                  "texmap_roughness_multiplier": 100.0,
                  "texmap_roughness_on": true,
                  "texmap_self_illumination_multiplier": 100.0,
                  "texmap_self_illumination_on": true,
                  "texmap_translucent_multiplier": 100.0,
                  "texmap_translucent_on": true
                },
                "options": {
                  "effect_id": 0,
                  "option_clampTextures": true,
                  "option_cutOff": 0.009999999776482582,
                  "option_doubleSided": true,
                  "option_environment_priority": 0,
                  "option_reflectOnBack": false,
                  "option_traceDiffuse": false,
                  "option_traceDiffuseAndGlossy": 1,
                  "option_traceReflection": true,
                  "option_traceRefraction": true,
                  "option_useIrradMap": true,
                  "override_effect_id": false,
                  "preservationMode": 0,
                  "refraction_fogUnitsScale_on": true
                },
                "reflect_interpolation": {
                  "reflect_colorThreshold": 0.25,
                  "reflect_interpSamples": 20,
                  "reflect_maxRate": -1,
                  "reflect_minRate": -1,
                  "reflect_normalThreshold": 0.4000000059604645
                },
                "refract_interpolation": {
                  "refract_colorThreshold": 0.25,
                  "refract_interpSamples": 20,
                  "refract_maxRate": -1,
                  "refract_minRate": -1,
                  "refract_normalThreshold": 0.4000000059604645
                }
              },
              "AmbientColor": [
                0.0,
                0.0,
                0.0
              ],
              "DiffuseColor": [
                0.19607844948768616,
                0.19607844948768616,
                0.19607844948768616
              ],
              "EmissiveColor": [
                0.0,
                0.0,
                0.0
              ],
              "EmissiveFactor": 0.0,
              "MultiLayer": false,
              "ShadingModel": "unknown",
              "ShininessExponent": 1024.0,
              "SpecularColor": [
                0.8823530077934265,
                0.8823530077934265,
                0.8823530077934265
              ],
              "SpecularFactor": 1.0,
              "TransparencyFactor": 0.6431373357772827,
              "启用": false
            }
          }
        }
      },
      "name": "ice water",
      "pbrMetallicRoughness": {
        "baseColorFactor": [
          0.8987863659858704,
          0.8987863659858704,
          0.8987863659858704,
          0.3568626642227173
        ],
        "metallicFactor": 0.9992298483848572,
        "roughnessFactor": 0.04699630290269852
      }
    }
  ],
  "meshes": [
    {
      "name": "Line001",
      "primitives": [
        {
          "attributes": {
            "NORMAL": 1,
            "POSITION": 0,
            "TEXCOORD_0": 2
          },
          "indices": 3,
          "material": 0
        }
      ]
    },
    {
      "name": "Line002",
      "primitives": [
        {
          "attributes": {
            "NORMAL": 5,
            "POSITION": 4,
            "TEXCOORD_0": 6
          },
          "indices": 7,
          "material": 1
        }
      ]
    },
    {
      "name": "Line003",
      "primitives": [
        {
          "attributes": {
            "NORMAL": 9,
            "POSITION": 8,
            "TEXCOORD_0": 10
          },
          "indices": 11,
          "material": 1
        }
      ]
    }
  ],
  "nodes": [
    {
      "mesh": 0,
      "name": "Line001",
      "rotation": [
        -0.7071067690849304,
        -0.0,
        0.0,
        0.7071067690849304
      ],
      "translation": [
        0.19114482402801514,
        0.4592614769935608,
        -2.1583051681518555
      ]
    },
    {
      "mesh": 1,
      "name": "Line002",
      "rotation": [
        -0.7071067690849304,
        -0.0,
        0.0,
        0.7071067690849304
      ],
      "translation": [
        3.3232831954956055,
        0.531762957572937,
        -11.309835433959961
      ]
    },
    {
      "mesh": 2,
      "name": "Line003",
      "rotation": [
        -0.7071067690849304,
        -0.0,
        0.0,
        0.7071067690849304
      ],
      "translation": [
        0.4365764856338501,
        0.46347254514694214,
        -17.18484115600586
      ]
    }
  ],
  "samplers": [
    {}
  ],
  "scenes": [
    {
      "nodes": [
        0,
        1,
        2
      ]
    }
  ],
  "textures": [
    {
      "name": "Map #83",
      "sampler": 0,
      "source": 0
    }
  ]
}