{
  "accessors": [
    {
      "bufferView": 0,
      "componentType": 5126,
      "count": 3397,
      "max": [
        4.87908935546875,
        4.879090309143066,
        1.9416691064834595
      ],
      "min": [
        -4.879089832305908,
        -4.879089832305908,
        -0.21673327684402466
      ],
      "name": "bg_atm_border_fountain02_sm_bjh_Material0/POSITION",
      "type": "VEC3"
    },
    {
      "bufferView": 0,
      "byteOffset": 12,
      "componentType": 5126,
      "count": 3397,
      "name": "bg_atm_border_fountain02_sm_bjh_Material0/NORMAL",
      "type": "VEC3"
    },
    {
      "bufferView": 0,
      "byteOffset": 24,
      "componentType": 5126,
      "count": 3397,
      "name": "bg_atm_border_fountain02_sm_bjh_Material0/TEXCOORD_0",
      "type": "VEC2"
    },
    {
      "bufferView": 0,
      "byteOffset": 32,
      "componentType": 5126,
      "count": 3397,
      "name": "bg_atm_border_fountain02_sm_bjh_Material0/TEXCOORD_1",
      "type": "VEC2"
    },
    {
      "bufferView": 0,
      "byteOffset": 40,
      "componentType": 5126,
      "count": 3397,
      "name": "bg_atm_border_fountain02_sm_bjh_Material0/COLOR_0",
      "type": "VEC4"
    },
    {
      "bufferView": 1,
      "componentType": 5125,
      "count": 3498,
      "name": "bg_atm_border_fountain02_sm_bjh_Material0/INDICES",
      "type": "SCALAR"
    },
    {
      "bufferView": 2,
      "componentType": 5126,
      "count": 4,
      "max": [
        3.412104845046997,
        3.67858624458313,
        1.1907265186309814
      ],
      "min": [
        -3.406785011291504,
        -3.371995687484741,
        1.1907265186309814
      ],
      "name": "bg_atm_border_fountain02_sm_bjh_Material0/POSITION",
      "type": "VEC3"
    },
    {
      "bufferView": 2,
      "byteOffset": 12,
      "componentType": 5126,
      "count": 4,
      "name": "bg_atm_border_fountain02_sm_bjh_Material0/NORMAL",
      "type": "VEC3"
    },
    {
      "bufferView": 2,
      "byteOffset": 24,
      "componentType": 5126,
      "count": 4,
      "name": "bg_atm_border_fountain02_sm_bjh_Material0/TEXCOORD_0",
      "type": "VEC2"
    },
    {
      "bufferView": 2,
      "byteOffset": 32,
      "componentType": 5126,
      "count": 4,
      "name": "bg_atm_border_fountain02_sm_bjh_Material0/TEXCOORD_1",
      "type": "VEC2"
    },
    {
      "bufferView": 2,
      "byteOffset": 40,
      "componentType": 5126,
      "count": 4,
      "name": "bg_atm_border_fountain02_sm_bjh_Material0/COLOR_0",
      "type": "VEC4"
    },
    {
      "bufferView": 3,
      "componentType": 5125,
      "count": 6,
      "name": "bg_atm_border_fountain02_sm_bjh_Material0/INDICES",
      "type": "SCALAR"
    }
  ],
  "asset": {
    "copyright": "Copyright (c) 2018-2020 Chukong Technologies Inc.",
    "generator": "FBX-glTF-conv",
    "version": "2.0"
  },
  "bufferViews": [
    {
      "buffer": 0,
      "byteLength": 190232,
      "byteStride": 56,
      "name": "bg_atm_border_fountain02_sm_bjh_Material0",
      "target": 34962
    },
    {
      "buffer": 0,
      "byteLength": 13992,
      "byteOffset": 190232
    },
    {
      "buffer": 0,
      "byteLength": 224,
      "byteOffset": 204224,
      "byteStride": 56,
      "name": "bg_atm_border_fountain02_sm_bjh_Material0",
      "target": 34962
    },
    {
      "buffer": 0,
      "byteLength": 24,
      "byteOffset": 204448
    }
  ],
  "buffers": [
    {
      "byteLength": 204472,
      "uri": "out.bin"
    }
  ],
  "images": [
    {
      "extras": {
        "FBX-glTF-conv": {
          "fileName": "J:\\失落方舟完美客户端\\Fixed\\UmodelExport\\BG_ATM_ABorder_A\\Texture2D\\bg_atm_border_fountain01_d_kdh.tga",
          "relativeFileName": "..\\..\\Texture2D\\bg_atm_border_fountain01_d_kdh.tga"
        }
      },
      "name": "J:\\失落方舟完美客户端\\Fixed\\UmodelExport\\BG_ATM_ABorder_A\\Texture2D\\\\bg_atm_border_fountain01_d_kdh.tga",
      "uri": "data:image/png;base64,"
    },
    {
      "extras": {
        "FBX-glTF-conv": {
          "fileName": "J:\\失落方舟完美客户端\\Fixed\\UmodelExport\\BG_ATM_ABorder_A\\Texture2D\\bg_atm_border_fountain01_n_kdh.tga",
          "relativeFileName": "..\\..\\Texture2D\\bg_atm_border_fountain01_n_kdh.tga"
        }
      },
      "name": "J:\\失落方舟完美客户端\\Fixed\\UmodelExport\\BG_ATM_ABorder_A\\Texture2D\\\\bg_atm_border_fountain01_n_kdh.tga",
      "uri": "data:image/png;base64,"
    },
    {
      "extras": {
        "FBX-glTF-conv": {
          "fileName": "J:\\失落方舟完美客户端\\Fixed\\UmodelExport\\FX_Tex_00\\Texture2D\\fx_a_fluid_018_n.tga",
          "relativeFileName": "..\\..\\..\\FX_Tex_00\\Texture2D\\fx_a_fluid_018_n.tga"
        }
      },
      "name": "J:\\失落方舟完美客户端\\Fixed\\UmodelExport\\FX_Tex_00\\Texture2D\\\\fx_a_fluid_018_n.tga",
      "uri": "data:image/png;base64,"
    },
    {
      "extras": {
        "FBX-glTF-conv": {
          "fileName": "J:\\失落方舟完美客户端\\Fixed\\UmodelExport\\FX_Tex_00\\Texture2D\\fx_a_fluid_018_n.tga",
          "relativeFileName": "..\\..\\..\\FX_Tex_00\\Texture2D\\fx_a_fluid_018_n.tga"
        }
      },
      "name": "J:\\失落方舟完美客户端\\Fixed\\UmodelExport\\FX_Tex_00\\Texture2D\\\\fx_a_fluid_018_n.tga",
      "uri": "data:image/png;base64,"
    }
  ],
  "materials": [
    {
      "name": "bg_atm_border_fountain01_mi_kdh",
      "normalTexture": {
        "index": 1
      },
      "pbrMetallicRoughness": {
        "baseColorTexture": {
          "index": 0
        },
        "metallicFactor": 0.4000000059604645,
        "roughnessFactor": 0.7071067690849304
      }
    },
    {
      "name": "bg_atm_border_fountainwater01_mi_kdh",
      "normalTexture": {
        "index": 3
      },
      "pbrMetallicRoughness": {
        "baseColorTexture": {
          "index": 2
        },
        "metallicFactor": 0.4000000059604645,
        "roughnessFactor": 0.7071067690849304
      }
    }
  ],
  "meshes": [
    {
      "name": "bg_atm_border_fountain02_sm_bjh_Material0",
      "primitives": [
        {
          "attributes": {
            "COLOR_0": 4,
            "NORMAL": 1,
            "POSITION": 0,
            "TEXCOORD_0": 2,
            "TEXCOORD_1": 3
          },
          "indices": 5,
          "material": 0
        },
        {
          "attributes": {
            "COLOR_0": 10,
            "NORMAL": 7,
            "POSITION": 6,
            "TEXCOORD_0": 8,
            "TEXCOORD_1": 9
          },
          "indices": 11,
          "material": 1
        }
      ]
    }
  ],
  "nodes": [
    {
      "mesh": 0,
      "name": "bg_atm_border_fountain02_sm_bjh",
      "rotation": [
        -0.7071067690849304,
        -0.0,
        0.0,
        0.7071067690849304
      ]
    }
  ],
  "samplers": [
    {}
  ],
  "scenes": [
    {
      "nodes": [
        0
      ]
    }
  ],
  "textures": [
    {
      "name": "J:\\失落方舟完美客户端\\Fixed\\UmodelExport\\BG_ATM_ABorder_A\\Texture2D\\\\bg_atm_border_fountain01_d_kdh.tga",
      "sampler": 0,
      "source": 0
    },
    {
      "name": "J:\\失落方舟完美客户端\\Fixed\\UmodelExport\\BG_ATM_ABorder_A\\Texture2D\\\\bg_atm_border_fountain01_n_kdh.tga",
      "sampler": 0,
      "source": 1
    },
    {
      "name": "J:\\失落方舟完美客户端\\Fixed\\UmodelExport\\FX_Tex_00\\Texture2D\\\\fx_a_fluid_018_n.tga",
      "sampler": 0,
      "source": 2
    },
    {
      "name": "J:\\失落方舟完美客户端\\Fixed\\UmodelExport\\FX_Tex_00\\Texture2D\\\\fx_a_fluid_018_n.tga",
      "sampler": 0,
      "source": 3
    }
  ]
}